{
  "accessors": [
    {
      "bufferView": 0,
      "componentType": 5125,
      "count": 16848,
      "type": "SCALAR"
    },
    {
      "bufferView": 1,
      "componentType": 5126,
      "count": 3193,
      "max": [
        3.83596229553223,
        7.72907543182373,
        12.9208755493164
      ],
      "min": [
        -3.83596229553223,
        -0.14053750038147,
        -18.5438346862793
      ],
      "type": "VEC3"
    },
    {
      "bufferView": 2,
      "componentType": 5126,
      "count": 3193,
      "type": "VEC3"
    },
    {
      "bufferView": 3,
      "componentType": 5126,
      "count": 3193,
      "type": "VEC4"
    },
    {
      "bufferView": 4,
      "componentType": 5126,
      "count": 3193,
      "type": "VEC2"
    }
  ],
  "asset": {
    "generator": "Adobe Substance 3D Painter 10.1.1",
    "version": "2.0"
  },
  "bufferViews": [
    {
      "buffer": 0,
      "byteLength": 67392,
      "target": 34963
    },
    {
      "buffer": 0,
      "byteLength": 38316,
      "byteOffset": 67392,
      "target": 34962
    },
    {
      "buffer": 0,
      "byteLength": 38316,
      "byteOffset": 105708,
      "target": 34962
    },
    {
      "buffer": 0,
      "byteLength": 51088,
      "byteOffset": 144024,
      "target": 34962
    },
    {
      "buffer": 0,
      "byteLength": 25544,
      "byteOffset": 195112,
      "target": 34962
    }
  ],
  "buffers": [
    {
      "byteLength": 220656,
      "uri": "RatTexture.bin"
    }
  ],
  "images": [
    {
      "uri": "lambert1_baseColor.png"
    },
    {
      "uri": "lambert1_occlusionRoughnessMetallic.png"
    },
    {
      "uri": "lambert1_normal.png"
    }
  ],
  "materials": [
    {
      "alphaMode": "OPAQUE",
      "name": "lambert1",
      "normalTexture": {
        "index": 2
      },
      "occlusionTexture": {
        "index": 1
      },
      "pbrMetallicRoughness": {
        "baseColorTexture": {
          "index": 0
        },
        "metallicRoughnessTexture": {
          "index": 1
        }
      }
    }
  ],
  "meshes": [
    {
      "name": "SM_Rat",
      "primitives": [
        {
          "attributes": {
            "NORMAL": 2,
            "POSITION": 1,
            "TANGENT": 3,
            "TEXCOORD_0": 4
          },
          "indices": 0,
          "material": 0,
          "mode": 4
        }
      ]
    }
  ],
  "nodes": [
    {
      "children": [
        1
      ],
      "name": "RootNode",
      "scale": [
        0.00999999977648258,
        0.00999999977648258,
        0.00999999977648258
      ]
    },
    {
      "children": [
        2
      ],
      "name": "SM_Rat"
    },
    {
      "mesh": 0,
      "name": "SM_Rat"
    }
  ],
  "samplers": [
    {
      "magFilter": 9729,
      "minFilter": 9985,
      "wrapS": 10497,
      "wrapT": 10497
    }
  ],
  "scene": 0,
  "scenes": [
    {
      "name": "Scene",
      "nodes": [
        0
      ]
    }
  ],
  "textures": [
    {
      "sampler": 0,
      "source": 0
    },
    {
      "sampler": 0,
      "source": 1
    },
    {
      "sampler": 0,
      "source": 2
    }
  ]
}