{
  "accessors": [
    {
      "bufferView": 0,
      "componentType": 5125,
      "count": 810,
      "type": "SCALAR"
    },
    {
      "bufferView": 1,
      "componentType": 5126,
      "count": 263,
      "max": [
        64.1008224487305,
        66.0526351928711,
        413.053039550781
      ],
      "min": [
        -0.928831100463867,
        7.31420707702637,
        -57.3094940185547
      ],
      "type": "VEC3"
    },
    {
      "bufferView": 2,
      "componentType": 5126,
      "count": 263,
      "type": "VEC3"
    },
    {
      "bufferView": 3,
      "componentType": 5126,
      "count": 263,
      "type": "VEC4"
    },
    {
      "bufferView": 4,
      "componentType": 5126,
      "count": 263,
      "type": "VEC2"
    }
  ],
  "asset": {
    "generator": "Adobe Substance 3D Painter 10.1.1",
    "version": "2.0"
  },
  "bufferViews": [
    {
      "buffer": 0,
      "byteLength": 3240,
      "target": 34963
    },
    {
      "buffer": 0,
      "byteLength": 3156,
      "byteOffset": 3240,
      "target": 34962
    },
    {
      "buffer": 0,
      "byteLength": 3156,
      "byteOffset": 6396,
      "target": 34962
    },
    {
      "buffer": 0,
      "byteLength": 4208,
      "byteOffset": 9552,
      "target": 34962
    },
    {
      "buffer": 0,
      "byteLength": 2104,
      "byteOffset": 13760,
      "target": 34962
    }
  ],
  "buffers": [
    {
      "byteLength": 15864,
      "uri": "Wire.bin"
    }
  ],
  "images": [
    {
      "uri": "standardSurface1_baseColor.png"
    },
    {
      "uri": "standardSurface1_occlusionRoughnessMetallic.png"
    },
    {
      "uri": "standardSurface1_normal.png"
    }
  ],
  "materials": [
    {
      "alphaMode": "OPAQUE",
      "name": "standardSurface1",
      "normalTexture": {
        "index": 2
      },
      "occlusionTexture": {
        "index": 1
      },
      "pbrMetallicRoughness": {
        "baseColorTexture": {
          "index": 0
        },
        "metallicRoughnessTexture": {
          "index": 1
        }
      }
    }
  ],
  "meshes": [
    {
      "name": "SM_Wire",
      "primitives": [
        {
          "attributes": {
            "NORMAL": 2,
            "POSITION": 1,
            "TANGENT": 3,
            "TEXCOORD_0": 4
          },
          "indices": 0,
          "material": 0,
          "mode": 4
        }
      ]
    }
  ],
  "nodes": [
    {
      "children": [
        1
      ],
      "name": "RootNode",
      "scale": [
        0.00999999977648258,
        0.00999999977648258,
        0.00999999977648258
      ]
    },
    {
      "children": [
        2
      ],
      "name": "SM_Wire"
    },
    {
      "mesh": 0,
      "name": "SM_Wire"
    }
  ],
  "samplers": [
    {
      "magFilter": 9729,
      "minFilter": 9985,
      "wrapS": 10497,
      "wrapT": 10497
    }
  ],
  "scene": 0,
  "scenes": [
    {
      "name": "Scene",
      "nodes": [
        0
      ]
    }
  ],
  "textures": [
    {
      "sampler": 0,
      "source": 0
    },
    {
      "sampler": 0,
      "source": 1
    },
    {
      "sampler": 0,
      "source": 2
    }
  ]
}