{
  "accessors": [
    {
      "bufferView": 0,
      "componentType": 5125,
      "count": 12183,
      "type": "SCALAR"
    },
    {
      "bufferView": 1,
      "componentType": 5126,
      "count": 3559,
      "max": [
        43.4749069213867,
        143.513610839844,
        27.4992771148682
      ],
      "min": [
        -43.4749069213867,
        8.47991943359375,
        -27.3090744018555
      ],
      "type": "VEC3"
    },
    {
      "bufferView": 2,
      "componentType": 5126,
      "count": 3559,
      "type": "VEC3"
    },
    {
      "bufferView": 3,
      "componentType": 5126,
      "count": 3559,
      "type": "VEC4"
    },
    {
      "bufferView": 4,
      "componentType": 5126,
      "count": 3559,
      "type": "VEC2"
    }
  ],
  "asset": {
    "generator": "Adobe Substance 3D Painter 10.1.1",
    "version": "2.0"
  },
  "bufferViews": [
    {
      "buffer": 0,
      "byteLength": 48732,
      "target": 34963
    },
    {
      "buffer": 0,
      "byteLength": 42708,
      "byteOffset": 48732,
      "target": 34962
    },
    {
      "buffer": 0,
      "byteLength": 42708,
      "byteOffset": 91440,
      "target": 34962
    },
    {
      "buffer": 0,
      "byteLength": 56944,
      "byteOffset": 134148,
      "target": 34962
    },
    {
      "buffer": 0,
      "byteLength": 28472,
      "byteOffset": 191092,
      "target": 34962
    }
  ],
  "buffers": [
    {
      "byteLength": 219564,
      "uri": "TVTexture.bin"
    }
  ],
  "images": [
    {
      "uri": "standardSurface1_baseColor.png"
    },
    {
      "uri": "standardSurface1_occlusionRoughnessMetallic.png"
    },
    {
      "uri": "standardSurface1_normal.png"
    }
  ],
  "materials": [
    {
      "alphaMode": "OPAQUE",
      "name": "standardSurface1",
      "normalTexture": {
        "index": 2
      },
      "occlusionTexture": {
        "index": 1
      },
      "pbrMetallicRoughness": {
        "baseColorTexture": {
          "index": 0
        },
        "metallicRoughnessTexture": {
          "index": 1
        }
      }
    }
  ],
  "meshes": [
    {
      "name": "SM_TV",
      "primitives": [
        {
          "attributes": {
            "NORMAL": 2,
            "POSITION": 1,
            "TANGENT": 3,
            "TEXCOORD_0": 4
          },
          "indices": 0,
          "material": 0,
          "mode": 4
        }
      ]
    }
  ],
  "nodes": [
    {
      "children": [
        1
      ],
      "name": "RootNode",
      "scale": [
        0.00999999977648258,
        0.00999999977648258,
        0.00999999977648258
      ]
    },
    {
      "children": [
        2
      ],
      "name": "SM_TV"
    },
    {
      "mesh": 0,
      "name": "SM_TV"
    }
  ],
  "samplers": [
    {
      "magFilter": 9729,
      "minFilter": 9985,
      "wrapS": 10497,
      "wrapT": 10497
    }
  ],
  "scene": 0,
  "scenes": [
    {
      "name": "Scene",
      "nodes": [
        0
      ]
    }
  ],
  "textures": [
    {
      "sampler": 0,
      "source": 0
    },
    {
      "sampler": 0,
      "source": 1
    },
    {
      "sampler": 0,
      "source": 2
    }
  ]
}